<?xml version="1.0" encoding="utf-8"?>
<!-- Generator: Adobe Illustrator 19.1.0, SVG Export Plug-In . SVG Version: 6.00 Build 0)  -->
<svg version="1.1" id="TOOLS" xmlns="http://www.w3.org/2000/svg" xmlns:xlink="http://www.w3.org/1999/xlink" x="0px" y="0px"
	 viewBox="-275 367 60 60" style="enable-background:new -275 367 60 60;" xml:space="preserve">
<style type="text/css">
	.st0{fill:none;stroke:#19B5BC;stroke-width:1.9194;stroke-miterlimit:10;}
	.st1{fill:#19B5BC;}
</style>
<g id="budget">
	<path class="st0" d="M-223.9,392.8c-1.9-9.1-9.6-15.9-21.3-15.9c-1.5,0-3.1,0.1-4.5,0.3c-3.1-1.6-9.5-4.6-10.2-2.6
		c-0.5,1.8-0.5,5.3-0.5,6.6c-3.9,2.5-6.9,6-8.4,10h-1.4c-1.3,0-2.3,1-2.3,2.3v10.6c0,2.3,3.9,3.1,5.7,3.3c1.4,2.1,3.2,3.9,5.3,5.5
		c0,0.1,0,0.1,0,0.2l0.6,5.2c0,0.9,0.7,1.7,1.7,1.7h7.7c1.1,0,1.7-1.1,2-2.3c1.4,0.2,2.9,0.3,4.3,0.3c1,0,1.9,0,2.8-0.1
		c0.3,1.1,0.9,2.1,2,2.1h7.7c0.9,0,1.7-0.7,1.7-1.7l1.1-5.6c4.2-3.8,6.6-9.2,6.6-15.3c0-1.1-0.1-2.2-0.2-3.2L-223.9,392.8z"/>
	<path class="st0" d="M-223.6,394.2c5.5-1,4.4-7,2.2-6.7c-2.1,0.3-0.2,6.7,3.9,4.6"/>
	<path class="st1" d="M-259.4,387.8c-1.6,0-3,1.3-3,3s1.3,3,3,3c1.6,0,3-1.3,3-3C-256.4,389.2-257.7,387.8-259.4,387.8z"/>
</g>
</svg>
