<?xml version="1.0" encoding="utf-8"?>
<!-- Generator: Adobe Illustrator 19.1.0, SVG Export Plug-In . SVG Version: 6.00 Build 0)  -->
<svg version="1.1" id="TOOLS" xmlns="http://www.w3.org/2000/svg" xmlns:xlink="http://www.w3.org/1999/xlink" x="0px" y="0px"
	 viewBox="-275 367 60 60" style="enable-background:new -275 367 60 60;" xml:space="preserve">
<style type="text/css">
	.st0{fill:none;stroke:#19B5BC;stroke-width:2;stroke-miterlimit:10;}
</style>
<g id="vendors">
	<path class="st0" d="M-238.7,405h-0.8c4.8-2.1,8.1-6.9,8.1-12.4c0-7.5-6.1-13.6-13.6-13.6s-13.6,6.1-13.6,13.6
		c0,5.6,3.3,10.3,8.1,12.4h-0.8c-5.4,0-9.7,4.4-9.7,9.8v0.8h32.2v-0.8C-228.9,409.4-233.3,405-238.7,405z"/>
	<path class="st0" d="M-254.5,379.1c-1.3-0.4-2.6-0.6-4-0.6c-6.9,0-12.4,5.7-12.4,12.5c0,5.1,3.1,9.4,7.5,11.3h-0.7
		c-4.9,0-8.9,4.1-8.8,9l-0.1,0.7l9.4-0.1"/>
	<path class="st0" d="M-235.5,379.1c1.3-0.4,2.6-0.6,4-0.6c6.9,0.1,12.4,5.7,12.3,12.5c0,5.1-3.1,9.4-7.5,11.3h0.7
		c4.9,0,8.9,4.1,8.8,9v0.7l-9.4-0.1"/>
</g>
</svg>
