<?xml version="1.0" encoding="utf-8"?>
<!-- Generator: Adobe Illustrator 19.1.0, SVG Export Plug-In . SVG Version: 6.00 Build 0)  -->
<svg version="1.1" id="TOOLS" xmlns="http://www.w3.org/2000/svg" xmlns:xlink="http://www.w3.org/1999/xlink" x="0px" y="0px"
	 viewBox="0 0 60 60" style="enable-background:new 0 0 60 60;" xml:space="preserve">
<style type="text/css">
	.st0{fill:none;stroke:#454545;stroke-width:2;stroke-miterlimit:10;}
</style>
<g id="vendors">
	<path class="st0" d="M36.3,38h-0.8c4.8-2.1,8.1-6.9,8.1-12.4c0-7.5-6.1-13.6-13.6-13.6c-7.5,0-13.6,6.1-13.6,13.6
		c0,5.6,3.3,10.3,8.1,12.4h-0.8c-5.4,0-9.7,4.4-9.7,9.8v0.8h32.2v-0.8C46.1,42.4,41.7,38,36.3,38z"/>
	<path class="st0" d="M20.5,12.1c-1.3-0.4-2.6-0.6-4-0.6C9.6,11.5,4.1,17.2,4.1,24c0,5.1,3.1,9.4,7.5,11.3l-0.7,0
		c-4.9,0-8.9,4.1-8.8,9L2,45l9.4-0.1"/>
	<path class="st0" d="M39.5,12.1c1.3-0.4,2.6-0.6,4-0.6c6.9,0.1,12.4,5.7,12.3,12.5c0,5.1-3.1,9.4-7.5,11.3l0.7,0
		c4.9,0,8.9,4.1,8.8,9l0,0.7l-9.4-0.1"/>
</g>
</svg>
