<?xml version="1.0" encoding="utf-8"?>
<!-- Generator: Adobe Illustrator 19.1.0, SVG Export Plug-In . SVG Version: 6.00 Build 0)  -->
<svg version="1.1" id="TOOLS" xmlns="http://www.w3.org/2000/svg" xmlns:xlink="http://www.w3.org/1999/xlink" x="0px" y="0px"
	 viewBox="0 0 60 60" style="enable-background:new 0 0 60 60;" xml:space="preserve">
<style type="text/css">
	.st0{fill:none;stroke:#454545;stroke-width:1.9499;stroke-miterlimit:10;}
	.st1{fill:#454545;}
	.st2{fill:none;stroke:#454545;stroke-width:1.9499;stroke-linecap:round;stroke-miterlimit:10;}
</style>
<g id="seating_chart">
	<path class="st0" d="M14.8,46.9c-1.8,0-3.2-1.4-3.2-3.2v-38c0-1.8,1.4-3.2,3.2-3.2h30.4c1.8,0,3.2,1.4,3.2,3.2v38
		c0,1.8-1.4,3.2-3.2,3.2H14.8z"/>
	<g>
		<path class="st1" d="M24.5,35.8l5.9-0.2h7.2c2,0,2.1,2.7,0,2.7H21.8c-1.5-0.1-2.1-1.8-0.9-2.7c7.2-5.2,9.6-7.2,11.9-9
			c2.1-1.5,3.3-4,2.9-6.4c-0.4-3.3-3-4.9-6.1-4.9c-3.3,0-5.7,1.3-6.2,4.7c-0.2,1.9-3,1.5-2.8-0.4c0.6-4.8,4.4-7,9-7
			c4.4,0,8.1,2.7,8.9,7.2c0.6,3.6-1.2,6.8-3.9,8.8l-4.8,3.8L24.5,35.8z"/>
	</g>
	<circle class="st0" cx="30" cy="48.4" r="4.4"/>
	<line class="st2" x1="20.8" y1="57.5" x2="39.2" y2="57.5"/>
	<line class="st2" x1="30" y1="52.8" x2="30" y2="57.5"/>
</g>
</svg>
