<?xml version="1.0" encoding="utf-8"?>
<!-- Generator: Adobe Illustrator 19.1.0, SVG Export Plug-In . SVG Version: 6.00 Build 0)  -->
<svg version="1.1" id="misc" xmlns="http://www.w3.org/2000/svg" xmlns:xlink="http://www.w3.org/1999/xlink" x="0px" y="0px"
	 viewBox="-275 367 60 60" style="enable-background:new -275 367 60 60;" xml:space="preserve">
<style type="text/css">
	.st0{fill:#19B5BC;}
</style>
<g id="storefront_1_">
	<g>
		<path class="st0" d="M-225.5,403c-4.1,0-7.5-3.4-7.5-7.5h2c0,3.1,2.5,5.5,5.5,5.5c3.1,0,5.5-2.5,5.5-5.5h2
			C-218,399.7-221.4,403-225.5,403z"/>
		<path class="st0" d="M-238.5,403c-4.1,0-7.5-3.4-7.5-7.5h2c0,3.1,2.5,5.5,5.5,5.5c3.1,0,5.5-2.5,5.5-5.5h2
			C-231,399.7-234.4,403-238.5,403z"/>
		<path class="st0" d="M-251.5,403c-4.1,0-7.5-3.4-7.5-7.5h2c0,3.1,2.5,5.5,5.5,5.5s5.5-2.5,5.5-5.5h2
			C-244,399.7-247.4,403-251.5,403z"/>
		<path class="st0" d="M-264.5,403c-4.1,0-7.5-3.3-7.5-7.5h1.9c0,3.1,2.5,5.5,5.5,5.5s5.5-2.5,5.5-5.5h1.9
			C-257.1,399.7-260.4,403-264.5,403z"/>
	</g>
	<polygon class="st0" points="-222,390.8 -219.6,390.8 -231.5,372.9 -258.5,372.9 -270.4,390.8 -268,390.8 -257.5,374.9 
		-252.8,374.9 -258.2,390.8 -256.2,390.8 -250.8,374.9 -246,374.9 -246,390.8 -244,390.8 -244,374.9 -239.2,374.9 -233.8,390.8 
		-231.8,390.8 -237.1,374.9 -232.5,374.9 	"/>
	<polygon class="st0" points="-226.4,421.1 -263.6,421.1 -265.5,401.9 -263.6,401.7 -261.8,419.1 -228.2,419.1 -226.4,401.7 
		-224.5,401.9 	"/>
	<path class="st0" d="M-239.1,421.1h-11.7v-17.5h11.7V421.1z M-248.9,419.1h7.8v-13.5h-7.8C-248.9,405.6-248.9,419.1-248.9,419.1z"
		/>
	<rect x="-272" y="392.5" class="st0" width="54" height="1.9"/>
</g>
</svg>
