<?xml version="1.0" encoding="utf-8"?>
<!-- Generator: Adobe Illustrator 19.1.0, SVG Export Plug-In . SVG Version: 6.00 Build 0)  -->
<svg version="1.1" id="misc" xmlns="http://www.w3.org/2000/svg" xmlns:xlink="http://www.w3.org/1999/xlink" x="0px" y="0px"
	 viewBox="0 0 60 60" style="enable-background:new 0 0 60 60;" xml:space="preserve">
<style type="text/css">
	.st0{fill:#454545;}
</style>
<g id="storefront_1_">
	<g>
		<path class="st0" d="M49.5,36c-4.1,0-7.5-3.4-7.5-7.5H44c0,3.1,2.5,5.5,5.5,5.5c3.1,0,5.5-2.5,5.5-5.5H57C57,32.7,53.6,36,49.5,36
			z"/>
		<path class="st0" d="M36.5,36c-4.1,0-7.5-3.4-7.5-7.5H31c0,3.1,2.5,5.5,5.5,5.5c3.1,0,5.5-2.5,5.5-5.5H44C44,32.7,40.6,36,36.5,36
			z"/>
		<path class="st0" d="M23.5,36c-4.1,0-7.5-3.4-7.5-7.5H18c0,3.1,2.5,5.5,5.5,5.5s5.5-2.5,5.5-5.5H31C31,32.7,27.6,36,23.5,36z"/>
		<path class="st0" d="M10.5,36C6.4,36,3,32.7,3,28.5h1.9c0,3.1,2.5,5.5,5.5,5.5s5.5-2.5,5.5-5.5h1.9C17.9,32.7,14.6,36,10.5,36z"/>
	</g>
	<polygon class="st0" points="53,23.8 55.4,23.8 43.5,5.9 16.5,5.9 4.6,23.8 7,23.8 17.5,7.9 22.2,7.9 16.8,23.8 18.8,23.8 
		24.2,7.9 29,7.9 29,23.8 31,23.8 31,7.9 35.8,7.9 41.2,23.8 43.2,23.8 37.9,7.9 42.5,7.9 	"/>
	<polygon class="st0" points="48.6,54.1 11.4,54.1 9.5,34.9 11.4,34.7 13.2,52.1 46.8,52.1 48.6,34.7 50.5,34.9 	"/>
	<path class="st0" d="M35.9,54.1H24.2V36.6h11.7V54.1z M26.1,52.1h7.8V38.6h-7.8V52.1z"/>
	<rect x="3" y="25.5" class="st0" width="54" height="1.9"/>
</g>
</svg>
